<svg xmlns="http://www.w3.org/2000/svg" viewBox="0 0 24 24">
    <path fill="#635BFF" d="M13.976 9.15c-2.172-.806-3.356-1.426-3.356-2.409 0-.831.683-1.305 1.901-1.305 2.227 0 4.515.858 6.09 1.631l.89-5.494C18.252.975 15.697 0 12.165 0 9.667 0 7.589.654 6.104 1.872 4.56 3.147 3.757 4.992 3.757 7.218c0 4.039 2.467 5.76 6.476 7.219 2.585.831 3.47 1.426 3.47 2.338 0 .914-.796 1.431-2.126 1.431-1.72 0-4.516-.858-6.384-1.974l-.89 5.494c1.901 1.115 4.799 2.052 8.044 2.052 2.584 0 4.74-.654 6.225-1.872 1.544-1.275 2.346-3.12 2.346-5.346.001-4.13-2.466-5.851-6.942-7.41z"/>
</svg> 